<?xml version="1.0" encoding="utf-8"?>
<!-- Generator: Adobe Illustrator 19.2.1, SVG Export Plug-In . SVG Version: 6.00 Build 0)  -->
<svg version="1.0" id="Layer_1" xmlns="http://www.w3.org/2000/svg" xmlns:xlink="http://www.w3.org/1999/xlink" x="0px" y="0px"
	 viewBox="0 0 143.1000061 68" enable-background="new 0 0 143.1000061 68" xml:space="preserve">
<linearGradient id="SVGID_1_" gradientUnits="userSpaceOnUse" x1="2.0999985" y1="36.4000015" x2="70.1768036" y2="36.4000015" gradientTransform="matrix(1 0 0 -1 0 70)">
	<stop  offset="0.0308459" style="stop-color:#CCE0F4"/>
	<stop  offset="0.0638723" style="stop-color:#C3DBF2"/>
	<stop  offset="0.1188" style="stop-color:#A9CEEB"/>
	<stop  offset="0.1889" style="stop-color:#80B8E0"/>
	<stop  offset="0.2714" style="stop-color:#469AD1"/>
	<stop  offset="0.3602" style="stop-color:#0075BE"/>
	<stop  offset="0.6664999" style="stop-color:#005B97"/>
	<stop  offset="0.9219" style="stop-color:#1E9CD7"/>
</linearGradient>
<ellipse fill="url(#SVGID_1_)" stroke="#000000" stroke-width="0.5" stroke-miterlimit="10" cx="36.0999985" cy="33.5999985" rx="34" ry="31.2000027"/>
<g enable-background="new    ">
	<path fill="#FFFFFF" d="M82.9804688,11.6772461l-3.0146484,5.5166016v4.1289062h-1.1142578v-4.1289062l-3.0146484-5.5166016
		h1.2646484l2.3037109,4.3408203l2.3105469-4.3408203H82.9804688z"/>
	<path fill="#FFFFFF" d="M87.7929688,14.0288086c0.9804688,0,1.7597656,0.3417969,2.3378906,1.0253906
		c0.5791016,0.6835938,0.8681641,1.5839844,0.8681641,2.7001953c0,1.1259766-0.2890625,2.0322266-0.8681641,2.7207031
		c-0.578125,0.6884766-1.3574219,1.0322266-2.3378906,1.0322266c-0.984375,0-1.7646484-0.3427734-2.3408203-1.0283203
		c-0.5771484-0.6865234-0.8652344-1.5947266-0.8652344-2.7246094c0-1.1210938,0.2900391-2.0224609,0.8681641-2.703125
		C86.0341797,14.3696289,86.8134766,14.0288086,87.7929688,14.0288086z M87.7929688,20.5776367
		c0.6474609,0,1.1582031-0.2734375,1.53125-0.8203125c0.3740234-0.546875,0.5605469-1.2099609,0.5605469-1.9892578
		c0-0.8203125-0.1845703-1.4951172-0.5537109-2.0234375s-0.8818359-0.7929688-1.5380859-0.7929688
		c-0.6601562,0-1.1728516,0.2607422-1.5380859,0.7832031c-0.3642578,0.5214844-0.546875,1.1992188-0.546875,2.0332031
		c0,0.7929688,0.1845703,1.4589844,0.5537109,2C86.6308594,20.3071289,87.1416016,20.5776367,87.7929688,20.5776367z"/>
	<path fill="#FFFFFF" d="M98.9423828,21.3227539h-1.0664062v-1.0527344
		c-0.765625,0.8154297-1.5722656,1.2236328-2.4199219,1.2236328c-1.3349609,0-2.0029297-0.8085938-2.0029297-2.4267578V14.199707
		h1.0664062v4.5595703c0,0.6064453,0.0957031,1.0585938,0.2871094,1.3564453
		c0.1914062,0.2988281,0.515625,0.4482422,0.9707031,0.4482422c0.6523438,0,1.3515625-0.4052734,2.0986328-1.2167969V14.199707
		h1.0664062V21.3227539z"/>
	<path fill="#FFFFFF" d="M107.3574219,21.3227539h-1.0664062v-4.5664062c0-0.6337891-0.1015625-1.0927734-0.3037109-1.3769531
		c-0.203125-0.2851562-0.5205078-0.4277344-0.9541016-0.4277344c-0.6513672,0-1.3505859,0.4052734-2.0986328,1.2167969v5.1542969
		h-1.0664062V14.199707h1.0664062v1.0458984c0.765625-0.8115234,1.5722656-1.2167969,2.4199219-1.2167969
		c1.3359375,0,2.0029297,0.8066406,2.0029297,2.4199219V21.3227539z"/>
	<path fill="#FFFFFF" d="M112.2451172,18.6362305c-0.6650391,0.3232422-0.9980469,0.6083984-0.9980469,0.8544922
		c0,0.1318359,0.0761719,0.2441406,0.2294922,0.3349609c0.1523438,0.0908203,0.3613281,0.1367188,0.625,0.1367188
		l2.3994141-0.0683594c0.5703125,0,1.0126953,0.1386719,1.3300781,0.4169922
		c0.3164062,0.2783203,0.4746094,0.671875,0.4746094,1.1826172c0,0.8066406-0.359375,1.4492188-1.0800781,1.9277344
		c-0.7197266,0.4785156-1.5605469,0.7177734-2.5224609,0.7177734c-0.7880859,0-1.4326172-0.1650391-1.9345703-0.4960938
		c-0.5009766-0.3300781-0.7519531-0.7568359-0.7519531-1.28125c0-0.5693359,0.3876953-1.0507812,1.1621094-1.4423828
		c-0.6425781-0.3007812-0.9638672-0.6699219-0.9638672-1.1074219c0-0.5009766,0.4150391-0.96875,1.2441406-1.4013672
		c-0.3828125-0.2324219-0.6767578-0.5332031-0.8818359-0.9023438s-0.3076172-0.7587891-0.3076172-1.1689453
		c0-0.6699219,0.2285156-1.2197266,0.6835938-1.6513672c0.4560547-0.4296875,1.0253906-0.6455078,1.7089844-0.6455078
		c0.4921875,0,0.9365234,0.1025391,1.3330078,0.3076172l2.1123047-0.3212891v1.0390625h-1.3603516
		c0.2050781,0.3603516,0.3076172,0.7841797,0.3076172,1.2714844c0,0.6474609-0.2255859,1.1943359-0.6767578,1.640625
		s-1.0224609,0.6699219-1.7158203,0.6699219C112.5166016,18.6499023,112.3779297,18.6450195,112.2451172,18.6362305z
		 M112.703125,23.3120117c0.7021484,0,1.2998047-0.15625,1.7949219-0.4677734
		c0.4941406-0.3125,0.7412109-0.6992188,0.7412109-1.1591797c0-0.4736328-0.3505859-0.7109375-1.0527344-0.7109375
		c-0.2324219,0-0.6328125,0.0136719-1.203125,0.0410156c-0.359375,0.0185547-0.6425781,0.0273438-0.8476562,0.0273438
		c-0.0996094,0-0.2558594,0.0820312-0.4677734,0.2460938s-0.3740234,0.3291016-0.4853516,0.4951172
		c-0.1123047,0.1669922-0.1679688,0.3388672-0.1679688,0.5166016c0,0.2783203,0.1552734,0.5166016,0.4648438,0.7138672
		C111.7900391,23.2133789,112.1972656,23.3120117,112.703125,23.3120117z M112.6621094,17.8227539
		c0.3925781,0,0.7119141-0.1357422,0.9609375-0.40625c0.2480469-0.2714844,0.3720703-0.6259766,0.3720703-1.0634766
		c0-0.4599609-0.1201172-0.8203125-0.3623047-1.0800781c-0.2412109-0.2597656-0.5644531-0.3896484-0.9707031-0.3896484
		c-0.3779297,0-0.6962891,0.1357422-0.953125,0.40625c-0.2578125,0.2714844-0.3867188,0.6259766-0.3867188,1.0634766
		c0,0.4287109,0.1289062,0.7802734,0.3867188,1.0556641C111.9658203,17.6850586,112.2841797,17.8227539,112.6621094,17.8227539z"/>
</g>
<g enable-background="new    ">
	<path fill="#FFFFFF" d="M82.515625,37.5214844c-0.7558594,0.5244141-1.6337891,0.7861328-2.6318359,0.7861328
		c-1.2480469,0-2.1972656-0.4287109-2.8466797-1.2851562S76.0625,34.9257812,76.0625,33.3037109
		c0-1.5673828,0.3144531-2.7949219,0.9433594-3.6806641c0.6289062-0.8867188,1.5888672-1.3300781,2.8779297-1.3300781
		c0.4648438,0,0.9257812,0.0595703,1.3808594,0.1777344c0.4560547,0.1181641,0.8232422,0.2753906,1.1005859,0.4716797
		l-0.3691406,0.8818359c-0.6425781-0.3642578-1.3466797-0.546875-2.1123047-0.546875
		c-0.8886719,0-1.5488281,0.3222656-1.9824219,0.9667969c-0.4326172,0.6455078-0.6494141,1.6650391-0.6494141,3.0595703
		c0,2.6796875,0.8779297,4.0195312,2.6318359,4.0195312c0.7431641,0,1.5039062-0.2275391,2.2832031-0.6835938L82.515625,37.5214844z
		"/>
	<path fill="#FFFFFF" d="M90.6640625,31.1914062l-0.4306641,1.0253906c-0.46875-0.2050781-0.875-0.3076172-1.2167969-0.3076172
		c-0.3144531,0-0.6220703,0.0898438-0.9228516,0.2705078c-0.3007812,0.1796875-0.5771484,0.4375-0.8300781,0.7714844
		c-0.2529297,0.3359375-0.3798828,0.5234375-0.3798828,0.5644531v4.6074219h-1.0595703V31h1.0595703v1.4423828
		c0.5703125-1.0751953,1.3085938-1.6132812,2.2148438-1.6132812C89.6367188,30.8291016,90.1582031,30.9501953,90.6640625,31.1914062
		z"/>
	<path fill="#FFFFFF" d="M99.1679688,34.5957031h-4.8876953c0,0.8066406,0.2333984,1.4716797,0.7011719,1.9960938
		c0.4667969,0.5244141,1.0400391,0.7861328,1.71875,0.7861328c0.6474609,0,1.3154297-0.1162109,2.0029297-0.3486328
		l0.1845703,0.8544922c-0.6289062,0.2822266-1.3623047,0.4238281-2.2011719,0.4238281
		c-1.0566406,0-1.9091797-0.3398438-2.5566406-1.0185547c-0.6464844-0.6787109-0.9707031-1.5947266-0.9707031-2.7480469
		c0-1.1298828,0.2910156-2.03125,0.8720703-2.703125c0.5810547-0.6728516,1.3320312-1.0087891,2.2519531-1.0087891
		c0.8203125,0,1.5068359,0.3125,2.0576172,0.9365234c0.5517578,0.6240234,0.8271484,1.4560547,0.8271484,2.4951172V34.5957031z
		 M98.0058594,33.7275391c0-0.5556641-0.1728516-1.0244141-0.5195312-1.4052734
		c-0.3457031-0.3798828-0.7333984-0.5703125-1.1621094-0.5703125c-0.5507812,0-1.0078125,0.1826172-1.3701172,0.546875
		s-0.5644531,0.8408203-0.6054688,1.4287109H98.0058594z"/>
	<path fill="#FFFFFF" d="M107.5351562,38.1230469h-1.0595703c-0.0859375-0.2871094-0.1298828-0.6699219-0.1298828-1.1484375
		c-0.6054688,0.8886719-1.4306641,1.3330078-2.4746094,1.3330078c-0.5283203,0-0.9941406-0.1884766-1.3974609-0.5634766
		c-0.4033203-0.3769531-0.6054688-0.8603516-0.6054688-1.453125c0-0.3505859,0.0712891-0.6611328,0.2119141-0.9296875
		c0.1416016-0.2685547,0.3486328-0.4960938,0.6220703-0.6796875c0.2734375-0.1855469,0.6064453-0.3310547,0.9980469-0.4375
		c0.3925781-0.1074219,0.8574219-0.1816406,1.3945312-0.2226562l1.1962891-0.0957031v-0.3417969
		c0-1.2216797-0.5693359-1.8320312-1.7089844-1.8320312c-0.2685547,0-0.609375,0.0585938-1.0214844,0.1738281
		c-0.4130859,0.1171875-0.7666016,0.2548828-1.0634766,0.4140625l-0.2802734-0.765625
		c0.9707031-0.4970703,1.8730469-0.7451172,2.7070312-0.7451172c1.6230469,0,2.4335938,0.859375,2.4335938,2.5771484v3.0625
		C107.3574219,37.0888672,107.4169922,37.6396484,107.5351562,38.1230469z M106.2910156,36.0107422V34.71875
		c-0.9609375,0.0869141-1.6210938,0.1679688-1.9785156,0.2421875c-0.3583984,0.0761719-0.6679688,0.2158203-0.9296875,0.4208984
		c-0.2626953,0.2050781-0.3935547,0.4833984-0.3935547,0.8339844c0,0.3193359,0.1123047,0.5761719,0.3349609,0.7724609
		c0.2236328,0.1962891,0.5087891,0.2939453,0.8544922,0.2939453c0.3789062,0,0.7548828-0.1123047,1.1279297-0.3388672
		C105.6806641,36.71875,106.0087891,36.4072266,106.2910156,36.0107422z"/>
	<path fill="#FFFFFF" d="M115.8271484,37.8017578c-0.7148438,0.328125-1.4189453,0.4921875-2.1123047,0.4921875
		c-1.2714844,0-1.9072266-0.671875-1.9072266-2.0166016v-4.3544922h-1.3671875V31h1.3671875v-1.9482422h1.0390625V31h2.4199219
		v0.9228516h-2.4199219v4.0742188c0,0.4326172,0.0957031,0.7685547,0.2871094,1.0087891
		c0.1914062,0.2382812,0.4511719,0.3583984,0.7792969,0.3583984c0.5839844,0,1.1601562-0.1298828,1.7294922-0.3896484
		L115.8271484,37.8017578z"/>
	<path fill="#FFFFFF" d="M122.3828125,38.1230469h-1.0664062v-6.2001953h-2.0986328V31h3.1650391V38.1230469z
		 M121.8632812,28.3066406c0.2011719,0,0.3720703,0.0722656,0.5126953,0.2148438
		c0.1416016,0.1445312,0.2119141,0.3164062,0.2119141,0.5166016c0,0.2099609-0.0693359,0.3847656-0.2080078,0.5263672
		c-0.1396484,0.1416016-0.3115234,0.2119141-0.5166016,0.2119141c-0.1865234,0-0.3515625-0.0742188-0.4951172-0.2216797
		c-0.1435547-0.1484375-0.2158203-0.3203125-0.2158203-0.5166016s0.0722656-0.3671875,0.2158203-0.5126953
		S121.6767578,28.3066406,121.8632812,28.3066406z"/>
	<path fill="#FFFFFF" d="M132.8828125,31l-2.7001953,7.1230469h-0.9707031L126.5253906,31H127.6875l2.0166016,5.6669922
		L131.7207031,31H132.8828125z"/>
	<path fill="#FFFFFF" d="M141.1748047,34.5957031h-4.8876953c0,0.8066406,0.2333984,1.4716797,0.7011719,1.9960938
		c0.4667969,0.5244141,1.0400391,0.7861328,1.71875,0.7861328c0.6474609,0,1.3154297-0.1162109,2.0029297-0.3486328
		l0.1845703,0.8544922c-0.6289062,0.2822266-1.3623047,0.4238281-2.2011719,0.4238281
		c-1.0566406,0-1.9091797-0.3398438-2.5566406-1.0185547c-0.6464844-0.6787109-0.9707031-1.5947266-0.9707031-2.7480469
		c0-1.1298828,0.2910156-2.03125,0.8720703-2.703125c0.5810547-0.6728516,1.3320312-1.0087891,2.2519531-1.0087891
		c0.8203125,0,1.5068359,0.3125,2.0576172,0.9365234c0.5517578,0.6240234,0.8271484,1.4560547,0.8271484,2.4951172V34.5957031z
		 M140.0126953,33.7275391c0-0.5556641-0.1728516-1.0244141-0.5195312-1.4052734
		c-0.3457031-0.3798828-0.7333984-0.5703125-1.1621094-0.5703125c-0.5507812,0-1.0078125,0.1826172-1.3701172,0.546875
		s-0.5644531,0.8408203-0.6054688,1.4287109H140.0126953z"/>
</g>
<g enable-background="new    ">
	<path fill="#FFFFFF" d="M81.4492188,46.34375c-0.5742188-0.1962891-1.1181641-0.2939453-1.6337891-0.2939453
		c-0.5830078,0-1.0585938,0.1328125-1.4248047,0.4003906c-0.3671875,0.265625-0.5507812,0.6455078-0.5507812,1.1376953
		c0,0.5830078,0.4814453,1.0957031,1.4423828,1.5380859c0.7109375,0.328125,1.1816406,0.5556641,1.4121094,0.6835938
		c0.2294922,0.1279297,0.4638672,0.3027344,0.7001953,0.5263672c0.2373047,0.2236328,0.4277344,0.4863281,0.5712891,0.7900391
		c0.1435547,0.3027344,0.2148438,0.6435547,0.2148438,1.0214844c0,0.9384766-0.3154297,1.6669922-0.9462891,2.1835938
		c-0.6318359,0.5175781-1.375,0.7763672-2.2324219,0.7763672c-0.8291016,0-1.5556641-0.1640625-2.1806641-0.4921875
		l0.2324219-0.9638672c0.734375,0.3330078,1.3740234,0.4990234,1.9208984,0.4990234
		c0.6386719,0,1.1494141-0.1650391,1.5351562-0.4951172c0.3847656-0.3310547,0.5771484-0.7851562,0.5771484-1.3642578
		c0-0.4287109-0.125-0.7919922-0.3759766-1.0908203c-0.25-0.2978516-0.7128906-0.6025391-1.3876953-0.9121094
		c-0.6923828-0.3193359-1.140625-0.5371094-1.3427734-0.6523438c-0.203125-0.1171875-0.4042969-0.2773438-0.6054688-0.4824219
		c-0.2001953-0.2050781-0.3554688-0.4355469-0.4648438-0.6904297s-0.1640625-0.5332031-0.1640625-0.8339844
		c0-0.7978516,0.2871094-1.4199219,0.8613281-1.8662109s1.3017578-0.6699219,2.1806641-0.6699219
		c0.6425781,0,1.28125,0.0976562,1.9140625,0.2939453L81.4492188,46.34375z"/>
	<path fill="#FFFFFF" d="M86.1318359,48.7226562c0.2373047-0.328125,0.5576172-0.5927734,0.9609375-0.7929688
		s0.828125-0.3007812,1.2744141-0.3007812c0.8203125,0,1.4638672,0.3388672,1.9316406,1.0146484
		c0.4667969,0.6777344,0.7001953,1.5576172,0.7001953,2.6425781c0,1.09375-0.2451172,2.0039062-0.734375,2.7304688
		c-0.4902344,0.7275391-1.1494141,1.0908203-1.9794922,1.0908203c-0.4414062,0-0.8554688-0.1103516-1.2402344-0.3310547
		c-0.3857422-0.2216797-0.6894531-0.5146484-0.9130859-0.8789062v3.8417969h-1.0664062v-9.9394531h1.0664062V48.7226562z
		 M86.1318359,49.7822266v2.9599609c0.2011719,0.4013672,0.4716797,0.7363281,0.8134766,1.0048828
		s0.6953125,0.4033203,1.0595703,0.4033203c0.5742188,0,1.03125-0.2685547,1.3710938-0.8066406
		c0.3388672-0.5380859,0.5087891-1.2050781,0.5087891-2.0029297c0-0.8203125-0.1611328-1.4902344-0.4853516-2.0097656
		c-0.3232422-0.5195312-0.7744141-0.7792969-1.3535156-0.7792969C87.2939453,48.5517578,86.65625,48.9619141,86.1318359,49.7822266z
		"/>
	<path fill="#FFFFFF" d="M99.1337891,54.9228516h-1.0595703c-0.0859375-0.2871094-0.1298828-0.6699219-0.1298828-1.1484375
		c-0.6054688,0.8886719-1.4306641,1.3330078-2.4746094,1.3330078c-0.5283203,0-0.9941406-0.1884766-1.3974609-0.5634766
		c-0.4033203-0.3769531-0.6054688-0.8603516-0.6054688-1.453125c0-0.3505859,0.0712891-0.6611328,0.2119141-0.9296875
		c0.1416016-0.2685547,0.3486328-0.4960938,0.6220703-0.6796875c0.2734375-0.1855469,0.6064453-0.3310547,0.9980469-0.4375
		c0.3925781-0.1074219,0.8574219-0.1816406,1.3945312-0.2226562l1.1962891-0.0957031v-0.3417969
		c0-1.2216797-0.5693359-1.8320312-1.7089844-1.8320312c-0.2685547,0-0.609375,0.0585938-1.0214844,0.1738281
		c-0.4130859,0.1171875-0.7666016,0.2548828-1.0634766,0.4140625l-0.2802734-0.765625
		c0.9707031-0.4970703,1.8730469-0.7451172,2.7070312-0.7451172c1.6230469,0,2.4335938,0.859375,2.4335938,2.5771484v3.0625
		C98.9560547,53.8886719,99.015625,54.4394531,99.1337891,54.9228516z M97.8896484,52.8105469v-1.2919922
		c-0.9609375,0.0869141-1.6210938,0.1679688-1.9785156,0.2421875c-0.3583984,0.0761719-0.6679688,0.2158203-0.9296875,0.4208984
		c-0.2626953,0.2050781-0.3935547,0.4833984-0.3935547,0.8339844c0,0.3193359,0.1123047,0.5761719,0.3349609,0.7724609
		c0.2236328,0.1962891,0.5087891,0.2939453,0.8544922,0.2939453c0.3789062,0,0.7548828-0.1123047,1.1279297-0.3388672
		C97.2792969,53.5185547,97.6074219,53.2070312,97.8896484,52.8105469z"/>
	<path fill="#FFFFFF" d="M107.3300781,54.6835938c-0.6191406,0.2822266-1.3007812,0.4238281-2.0439453,0.4238281
		c-1.1210938,0-2.015625-0.3408203-2.6826172-1.0224609c-0.6679688-0.6806641-1.0019531-1.5869141-1.0019531-2.7167969
		s0.3359375-2.0361328,1.0087891-2.7167969c0.671875-0.6816406,1.5546875-1.0224609,2.6484375-1.0224609
		c0.7158203,0,1.3974609,0.125,2.0439453,0.3759766l-0.2802734,0.8818359c-0.6464844-0.2236328-1.2304688-0.3349609-1.75-0.3349609
		c-0.7832031,0-1.4042969,0.2529297-1.8623047,0.7587891s-0.6875,1.1914062-0.6875,2.0576172
		c0,0.7929688,0.2373047,1.4589844,0.7109375,2c0.4746094,0.5390625,1.0917969,0.8095703,1.8525391,0.8095703
		c0.6015625,0,1.2216797-0.1162109,1.859375-0.3486328L107.3300781,54.6835938z"/>
	<path fill="#FFFFFF" d="M115.9707031,51.3955078h-4.8876953c0,0.8066406,0.2333984,1.4716797,0.7011719,1.9960938
		c0.4667969,0.5244141,1.0400391,0.7861328,1.71875,0.7861328c0.6474609,0,1.3154297-0.1162109,2.0029297-0.3486328
		l0.1845703,0.8544922c-0.6289062,0.2822266-1.3623047,0.4238281-2.2011719,0.4238281
		c-1.0566406,0-1.9091797-0.3398438-2.5566406-1.0185547c-0.6464844-0.6787109-0.9707031-1.5947266-0.9707031-2.7480469
		c0-1.1298828,0.2910156-2.03125,0.8720703-2.703125c0.5810547-0.6728516,1.3320312-1.0087891,2.2519531-1.0087891
		c0.8203125,0,1.5068359,0.3125,2.0576172,0.9365234c0.5517578,0.6240234,0.8271484,1.4560547,0.8271484,2.4951172V51.3955078z
		 M114.8085938,50.5273438c0-0.5556641-0.1728516-1.0244141-0.5195312-1.4052734
		c-0.3457031-0.3798828-0.7333984-0.5703125-1.1621094-0.5703125c-0.5507812,0-1.0078125,0.1826172-1.3701172,0.546875
		s-0.5644531,0.8408203-0.6054688,1.4287109H114.8085938z"/>
</g>
</svg>
